HIERARCHY
ROOT hip
{
  OFFSET 154.836 85.1548 -26.8158
  CHANNELS 6 Xposition Yposition Zposition Zrotation Xrotation Yrotation
  JOINT abdomen
  {
    OFFSET 0 20.6881 -0.73152
    CHANNELS 3 Zrotation Xrotation Yrotation
    JOINT chest
    {
      OFFSET 0 11.7043 -0.48768
      CHANNELS 3 Zrotation Xrotation Yrotation
      JOINT neck
      {
        OFFSET 0 22.1894 -2.19456
        CHANNELS 3 Zrotation Xrotation Yrotation
        JOINT head
        {
          OFFSET -0.24384 7.07133 1.2192
          CHANNELS 3 Zrotation Xrotation Yrotation
          JOINT leftEye
          {
            OFFSET 4.14528 8.04674 8.04672
            CHANNELS 3 Zrotation Xrotation Yrotation
            End Site
            {
              OFFSET 1 0 0
            }
          }
          JOINT rightEye
          {
            OFFSET -3.6576 8.04674 8.04672
            CHANNELS 3 Zrotation Xrotation Yrotation
            End Site
            {
              OFFSET 1 0 0
            }
          }
        }
      }
      JOINT rCollar
      {
        OFFSET -2.68224 19.2634 -4.8768
        CHANNELS 3 Zrotation Xrotation Yrotation
        JOINT rShldr
        {
          OFFSET -8.77824 -1.95073 1.46304
          CHANNELS 3 Zrotation Xrotation Yrotation
          JOINT rForeArm
          {
            OFFSET -28.1742 -1.7115 0.48768
            CHANNELS 3 Zrotation Xrotation Yrotation
            JOINT rHand
            {
              OFFSET -22.5879 0.773209 7.07136
              CHANNELS 3 Zrotation Xrotation Yrotation
              JOINT rThumb1
              {
                OFFSET -1.2192 -0.487915 3.41376
                CHANNELS 3 Zrotation Xrotation Yrotation
                JOINT rThumb2
                {
                  OFFSET -3.37035 -0.52449 3.41376
                  CHANNELS 3 Zrotation Xrotation Yrotation
                  End Site
                  {
                    OFFSET -1.78271 -1.18214 1.43049
                  }
                }
              }
              JOINT rIndex1
              {
                OFFSET -7.75947 0.938293 5.60832
                CHANNELS 3 Zrotation Xrotation Yrotation
                JOINT rIndex2
                {
                  OFFSET -2.54057 -0.884171 1.56538
                  CHANNELS 3 Zrotation Xrotation Yrotation
                  End Site
                  {
                    OFFSET -1.62519 -0.234802 1.16502
                  }
                }
              }
              JOINT rMid1
              {
                OFFSET -8.24714 1.18213 3.41376
                CHANNELS 3 Zrotation Xrotation Yrotation
                JOINT rMid2
                {
                  OFFSET -3.10165 -0.590103 1.0647
                  CHANNELS 3 Zrotation Xrotation Yrotation
                  End Site
                  {
                    OFFSET -2.48547 -0.328903 0.83742
                  }
                }
              }
              JOINT rRing1
              {
                OFFSET -8.82822 0.546677 1.51678
                CHANNELS 3 Zrotation Xrotation Yrotation
                JOINT rRing2
                {
                  OFFSET -2.60934 -0.819778 -0.0198488
                  CHANNELS 3 Zrotation Xrotation Yrotation
                  End Site
                  {
                    OFFSET -2.33842 -0.294052 0.168128
                  }
                }
              }
              JOINT rPinky1
              {
                OFFSET -8.27202 -0.0477905 -0.4584
                CHANNELS 3 Zrotation Xrotation Yrotation
                JOINT rPinky2
                {
                  OFFSET -1.82734 -0.647385 -0.700984
                  CHANNELS 3 Zrotation Xrotation Yrotation
                  End Site
                  {
                    OFFSET -1.69225 -0.51767 -0.607171
                  }
                }
              }
            }
          }
        }
      }
      JOINT lCollar
      {
        OFFSET 2.68224 19.2634 -4.8768
        CHANNELS 3 Zrotation Xrotation Yrotation
        JOINT lShldr
        {
          OFFSET 8.77824 -1.95073 1.46304
          CHANNELS 3 Zrotation Xrotation Yrotation
          JOINT lForeArm
          {
            OFFSET 28.1742 -1.7115 0.48768
            CHANNELS 3 Zrotation Xrotation Yrotation
            JOINT lHand
            {
              OFFSET 22.5879 0.773209 7.07136
              CHANNELS 3 Zrotation Xrotation Yrotation
              JOINT lThumb1
              {
                OFFSET 1.2192 -0.487915 3.41376
                CHANNELS 3 Zrotation Xrotation Yrotation
                JOINT lThumb2
                {
                  OFFSET 3.37035 -0.52449 3.41376
                  CHANNELS 3 Zrotation Xrotation Yrotation
                  End Site
                  {
                    OFFSET 1.78271 -1.18214 1.43049
                  }
                }
              }
              JOINT lIndex1
              {
                OFFSET 7.75947 0.938293 5.60832
                CHANNELS 3 Zrotation Xrotation Yrotation
                JOINT lIndex2
                {
                  OFFSET 2.54057 -0.884171 1.56538
                  CHANNELS 3 Zrotation Xrotation Yrotation
                  End Site
                  {
                    OFFSET 1.62519 -0.234802 1.16502
                  }
                }
              }
              JOINT lMid1
              {
                OFFSET 8.24714 1.18213 3.41376
                CHANNELS 3 Zrotation Xrotation Yrotation
                JOINT lMid2
                {
                  OFFSET 3.10165 -0.590103 1.0647
                  CHANNELS 3 Zrotation Xrotation Yrotation
                  End Site
                  {
                    OFFSET 2.48547 -0.328903 0.83742
                  }
                }
              }
              JOINT lRing1
              {
                OFFSET 8.82822 0.546677 1.51678
                CHANNELS 3 Zrotation Xrotation Yrotation
                JOINT lRing2
                {
                  OFFSET 2.60934 -0.819778 -0.0198488
                  CHANNELS 3 Zrotation Xrotation Yrotation
                  End Site
                  {
                    OFFSET 2.33842 -0.294052 0.168128
                  }
                }
              }
              JOINT lPinky1
              {
                OFFSET 8.27202 -0.0477905 -0.4584
                CHANNELS 3 Zrotation Xrotation Yrotation
                JOINT lPinky2
                {
                  OFFSET 1.82734 -0.647385 -0.700984
                  CHANNELS 3 Zrotation Xrotation Yrotation
                  End Site
                  {
                    OFFSET 1.69225 -0.51767 -0.607171
                  }
                }
              }
            }
          }
        }
      }
    }
  }
  JOINT rButtock
  {
    OFFSET -8.77824 4.35084 1.2192
    CHANNELS 3 Zrotation Xrotation Yrotation
    JOINT rThigh
    {
      OFFSET 0 -1.70687 -2.19456
      CHANNELS 3 Zrotation Xrotation Yrotation
      JOINT rShin
      {
        OFFSET 0 -36.8199 0.73152
        CHANNELS 3 Zrotation Xrotation Yrotation
        JOINT rFoot
        {
          OFFSET 0.73152 -45.1104 -5.12064
          CHANNELS 3 Zrotation Xrotation Yrotation
          End Site
          {
            OFFSET -1.1221 -3.69964 12.103
          }
        }
      }
    }
  }
  JOINT lButtock
  {
    OFFSET 8.77824 4.35084 1.2192
    CHANNELS 3 Zrotation Xrotation Yrotation
    JOINT lThigh
    {
      OFFSET 0 -1.70687 -2.19456
      CHANNELS 3 Zrotation Xrotation Yrotation
      JOINT lShin
      {
        OFFSET 0 -36.8199 0.73152
        CHANNELS 3 Zrotation Xrotation Yrotation
        JOINT lFoot
        {
          OFFSET -0.73152 -45.1104 -5.12064
          CHANNELS 3 Zrotation Xrotation Yrotation
          End Site
          {
            OFFSET 1.1221 -3.69964 12.103
          }
        }
      }
    }
  }
}
MOTION
Frames:	9
Frame Time:	0.00833333
14.3086 84.2733 -0.535381 2.05889 4.44215 101.466 -11.0211 14.1359 2.97937 -0.131328 0.419859 0.566464 5.5147 4.16471 2.44594 -1.79871 -6.11979 3.99386 -0 0 0 -0 0 0 -9.10922e-014 -1.32558e-012 -2.06982e-013 67.2693 23.8262 12.6608 -26.8047 -25.7083 60.4294 -1.02171 -27.4409 -4.18473 1.27655e-009 -5.45506e-011 2.40618e-009 2.15375e-009 -9.34237e-011 4.18088e-009 1.27655e-009 -5.45492e-011 2.40617e-009 7.73091 5.47488 0.417314 1.27655e-009 -5.4549e-011 2.40617e-009 2.90554 0.965183 0.102902 1.27656e-009 -5.45517e-011 2.40618e-009 10.2786 0.731801 0.0259123 1.27655e-009 -5.45515e-011 2.40618e-009 2.22167 -0.733487 -0.20892 -9.12175e-014 -1.32558e-012 -2.07202e-013 -63.52 22.0506 -12.4964 27.69 -29.0049 -65.6624 0.560064 -20.7693 3.05534 8.58104e-010 -1.89918e-009 -2.0943e-009 1.5142e-009 -3.27346e-009 -3.60459e-009 8.58091e-010 -1.89917e-009 -2.09429e-009 -7.73091 5.47488 -0.417314 8.58107e-010 -1.89918e-009 -2.0943e-009 -2.90554 0.965183 -0.102902 8.58096e-010 -1.89918e-009 -2.0943e-009 -10.2786 0.731801 -0.0259123 8.58106e-010 -1.89918e-009 -2.09431e-009 -2.22167 -0.733487 0.20892 -2.03217e-016 0 -3.88251e-019 2.44337 -28.482 2.8254 -1.31698 63.836 1.9443 -6.53751 -8.71784 -22.1158 2.03217e-016 0 3.88251e-019 -8.89768 -7.93724 -7.08362 0.0887974 29.911 -0.642572 8.70085 -19.315 20.5329 
15.8693 84.1994 -1.19844 2.05804 4.72151 101.306 -11.3292 14.2673 2.86684 0.151207 0.345253 0.540334 5.64033 4.13837 2.49922 -1.98251 -6.04872 4.06055 -0 0 0 -0 0 0 -9.21789e-014 -1.21974e-012 -1.77962e-013 67.2409 23.5072 12.4702 -26.8592 -25.8788 60.6871 -0.969695 -26.7933 -4.0698 1.16895e-009 -9.60527e-012 2.38055e-009 1.96697e-009 -1.54511e-011 4.13455e-009 1.16895e-009 -9.60289e-012 2.38054e-009 7.73091 5.47488 0.417314 1.16895e-009 -9.6019e-012 2.38054e-009 2.90554 0.965183 0.102902 1.16896e-009 -9.60478e-012 2.38054e-009 10.2786 0.731801 0.0259123 1.16895e-009 -9.60448e-012 2.38055e-009 2.22167 -0.733487 -0.20892 -9.23491e-014 -1.21974e-012 -1.7821e-013 -63.5955 22.1378 -12.9618 27.6788 -28.9537 -65.5815 0.564294 -20.8437 3.06731 7.20968e-010 -2.04205e-009 -2.2306e-009 1.27943e-009 -3.52339e-009 -3.84241e-009 7.20956e-010 -2.04204e-009 -2.23059e-009 -7.73091 5.47488 -0.417314 7.20971e-010 -2.04204e-009 -2.2306e-009 -2.90554 0.965183 -0.102902 7.20959e-010 -2.04204e-009 -2.2306e-009 -10.2786 0.731801 -0.0259123 7.2097e-010 -2.04204e-009 -2.23061e-009 -2.22167 -0.733487 0.20892 -2.03217e-016 0 -3.88251e-019 2.92099 -29.9479 3.50249 -1.11429 61.4034 1.77998 -7.31468 -10.1129 -23.1248 2.03217e-016 0 3.88251e-019 -9.37557 -6.41188 -6.71798 0.0749884 29.2636 -0.705655 9.03259 -19.7801 20.8677 
17.4309 84.2159 -1.87224 2.00763 5.04372 101.156 -11.7328 14.3505 2.83115 0.486363 0.401544 0.533178 5.78157 4.20195 2.53134 -2.24799 -6.36262 4.06127 -0 0 0 -0 0 0 -3.58035e-014 -7.16034e-013 -1.29703e-013 67.2781 23.0214 12.2254 -26.9493 -26.1674 61.1265 -0.920106 -26.1648 -3.95915 7.19836e-010 3.08472e-010 5.12179e-010 1.22844e-009 5.36041e-010 8.9855e-010 7.19837e-010 3.08474e-010 5.12169e-010 7.73091 5.47488 0.417314 7.19837e-010 3.08476e-010 5.12174e-010 2.90554 0.965183 0.102902 7.19838e-010 3.08473e-010 5.12178e-010 10.2786 0.731801 0.0259123 7.19832e-010 3.08474e-010 5.1219e-010 2.22167 -0.733487 -0.20892 -3.59772e-014 -7.1603e-013 -1.2998e-013 -63.6868 22.1371 -13.5749 27.6794 -28.9568 -65.5869 0.570892 -20.9584 3.08581 5.57775e-010 -4.41599e-010 -3.02308e-010 9.67779e-010 -7.56314e-010 -5.14829e-010 5.57764e-010 -4.41593e-010 -3.02296e-010 -7.73091 5.47488 -0.417314 5.57779e-010 -4.41597e-010 -3.02311e-010 -2.90554 0.965183 -0.102902 5.57766e-010 -4.41596e-010 -3.02307e-010 -10.2786 0.731801 -0.0259123 5.57777e-010 -4.41597e-010 -3.02319e-010 -2.22167 -0.733487 0.20892 -2.03217e-016 0 -3.88251e-019 3.31887 -31.0253 4.39571 -0.90835 58.2182 1.58694 -7.84971 -10.9065 -24.087 2.03217e-016 0 3.88251e-019 -9.77545 -4.72389 -6.04189 0.0582106 28.1514 -0.742492 9.17186 -19.9441 21.0151 
18.9711 84.2972 -2.55281 1.9238 5.41265 101.01 -12.2184 14.4061 2.85525 0.867108 0.544764 0.541361 5.92038 4.34039 2.55086 -2.54303 -6.96969 4.02591 -0 0 0 -0 0 0 5.99997e-014 8.39822e-014 -6.20674e-014 67.3577 22.4179 11.9329 -27.0616 -26.5421 61.7168 -0.870514 -25.5158 -3.84611 1.45141e-011 8.14549e-010 -2.56947e-009 7.23586e-011 1.41346e-009 -4.43824e-009 1.45141e-011 8.1455e-010 -2.56948e-009 7.73091 5.47488 0.417314 1.45143e-011 8.14551e-010 -2.56947e-009 2.90554 0.965183 0.102902 1.45122e-011 8.14549e-010 -2.56946e-009 10.2786 0.731801 0.0259123 1.45074e-011 8.14551e-010 -2.56945e-009 2.22167 -0.733487 -0.20892 5.98465e-014 8.39904e-014 -6.23749e-014 -63.7964 22.0744 -14.2891 27.6894 -29.002 -65.6585 0.579969 -21.1141 3.11099 3.44558e-010 2.27868e-009 2.95847e-009 5.49194e-010 3.9482e-009 5.11334e-009 3.44549e-010 2.27869e-009 2.95849e-009 -7.73091 5.47488 -0.417314 3.44562e-010 2.27868e-009 2.95847e-009 -2.90554 0.965183 -0.102902 3.44549e-010 2.27868e-009 2.95848e-009 -10.2786 0.731801 -0.0259123 3.44561e-010 2.27868e-009 2.95846e-009 -2.22167 -0.733487 0.20892 -2.03217e-016 0 -3.88251e-019 3.66369 -31.7501 5.4804 -0.71647 54.3123 1.38928 -8.20371 -11.291 -25.0214 2.03217e-016 0 3.88251e-019 -10.1721 -2.90462 -5.14848 0.0395448 26.6978 -0.762308 9.17296 -19.8785 21.0391 
20.5203 84.421 -3.1899 1.81935 5.78236 100.876 -12.6911 14.4244 2.88927 1.22567 0.718392 0.551907 6.04543 4.4959 2.55997 -2.83077 -7.59852 3.97495 -0 0 0 -0 0 0 1.55649e-013 8.79426e-013 4.07625e-015 67.4608 21.7957 11.6134 -27.1741 -26.9352 62.3546 -0.826919 -24.9202 -3.74364 -6.84042e-010 1.29317e-009 -5.58611e-009 -1.07312e-009 2.24325e-009 -9.66261e-009 -6.84042e-010 1.29318e-009 -5.58612e-009 7.73091 5.47488 0.417314 -6.84042e-010 1.29318e-009 -5.58611e-009 2.90554 0.965183 0.102902 -6.84046e-010 1.29317e-009 -5.5861e-009 10.2786 0.731801 0.0259123 -6.8405e-010 1.29318e-009 -5.58609e-009 2.22167 -0.733487 -0.20892 1.55526e-013 8.79439e-013 3.74274e-015 -63.8975 22.0058 -15.0316 27.7018 -29.0592 -65.7493 0.586742 -21.2292 3.12963 1.29258e-010 4.94565e-009 6.15342e-009 1.28088e-010 8.56054e-009 1.06279e-008 1.29251e-010 4.94565e-009 6.15344e-009 -7.73091 5.47488 -0.417314 1.29263e-010 4.94565e-009 6.15342e-009 -2.90554 0.965183 -0.102902 1.2925e-010 4.94565e-009 6.15343e-009 -10.2786 0.731801 -0.0259123 1.29261e-010 4.94565e-009 6.15341e-009 -2.22167 -0.733487 0.20892 -2.03217e-016 0 -3.88251e-019 3.99431 -32.2226 6.76413 -0.561109 50.1328 1.22029 -8.5361 -11.6427 -25.9159 2.03217e-016 0 3.88251e-019 -10.5776 -0.974313 -4.21634 0.0203316 24.9897 -0.767059 9.07534 -19.624 21.0043 
22.08 84.5639 -3.80687 1.70623 6.10794 100.769 -13.0554 14.3959 2.88328 1.49443 0.865904 0.551835 6.14541 4.61071 2.56079 -3.07287 -7.97756 3.92831 -0 0 0 -0 0 0 2.11564e-013 1.36942e-012 4.78574e-014 67.5715 21.254 11.2854 -27.2706 -27.2876 62.9312 -0.794193 -24.452 -3.66404 -1.11286e-009 1.5289e-009 -7.25948e-009 -1.77985e-009 2.65188e-009 -1.25614e-008 -1.11286e-009 1.5289e-009 -7.25949e-009 7.73091 5.47488 0.417314 -1.11286e-009 1.5289e-009 -7.25948e-009 2.90554 0.965183 0.102902 -1.11286e-009 1.5289e-009 -7.25947e-009 10.2786 0.731801 0.0259123 -1.11287e-009 1.52891e-009 -7.25945e-009 2.22167 -0.733487 -0.20892 2.11464e-013 1.36944e-012 4.75095e-014 -63.9605 21.9881 -15.7307 27.7102 -29.0984 -65.8119 0.586231 -21.222 3.12843 -4.0183e-011 6.38615e-009 7.88422e-009 -1.9112e-010 1.10511e-008 1.36146e-008 -4.01883e-011 6.38615e-009 7.88424e-009 -7.73091 5.47488 -0.417314 -4.01773e-011 6.38615e-009 7.88422e-009 -2.90554 0.965183 -0.102902 -4.01898e-011 6.38615e-009 7.88422e-009 -10.2786 0.731801 -0.0259123 -4.01796e-011 6.38615e-009 7.88421e-009 -2.22167 -0.733487 0.20892 -2.03217e-016 0 -3.88251e-019 4.35414 -32.5414 8.25691 -0.443279 46.1275 1.0928 -9.03008 -12.328 -26.7687 2.03217e-016 0 3.88251e-019 -10.9799 1.04371 -3.42182 0.0022256 23.1141 -0.758711 8.91907 -19.2215 20.9762 
23.636 84.6776 -4.43719 1.55721 6.40899 100.687 -13.3281 14.2953 2.83741 1.64328 0.968381 0.540454 6.21218 4.67507 2.54879 -3.24837 -8.03486 3.88296 -0 0 0 -0 0 0 2.07782e-013 1.39367e-012 5.60348e-014 67.7107 20.8205 10.9289 -27.3572 -27.6129 63.4482 -0.774231 -24.1582 -3.61447 -1.11392e-009 1.38338e-009 -6.87006e-009 -1.78933e-009 2.3993e-009 -1.18887e-008 -1.11392e-009 1.38338e-009 -6.87007e-009 7.73091 5.47488 0.417314 -1.11393e-009 1.38338e-009 -6.87005e-009 2.90554 0.965183 0.102902 -1.11393e-009 1.38338e-009 -6.87005e-009 10.2786 0.731801 0.0259123 -1.11393e-009 1.38338e-009 -6.87004e-009 2.22167 -0.733487 -0.20892 2.07697e-013 1.39369e-012 5.56865e-014 -63.9572 22.037 -16.3851 27.7169 -29.1301 -65.864 0.575803 -21.0459 3.09989 -1.22749e-010 5.94728e-009 7.38167e-009 -3.25735e-010 1.02904e-008 1.27456e-008 -1.22754e-010 5.94728e-009 7.38169e-009 -7.73091 5.47488 -0.417314 -1.22743e-010 5.94727e-009 7.38167e-009 -2.90554 0.965183 -0.102902 -1.22755e-010 5.94728e-009 7.38167e-009 -10.2786 0.731801 -0.0259123 -1.22746e-010 5.94727e-009 7.38166e-009 -2.22167 -0.733487 0.20892 -2.03217e-016 0 -3.88251e-019 4.72475 -32.69 10.1507 -0.345169 42.0894 0.99286 -9.83455 -13.5829 -27.6552 2.03217e-016 0 3.88251e-019 -11.4091 3.28577 -2.79801 -0.0138295 20.7702 -0.730742 8.7176 -18.6025 21.0653 
25.2213 84.7493 -5.05712 1.37524 6.70201 100.625 -13.5461 14.1352 2.77389 1.71238 1.05725 0.523764 6.25354 4.71791 2.52452 -3.3807 -7.91503 3.83095 -0 0 0 -0 0 0 1.68548e-013 1.13933e-012 4.22976e-014 67.879 20.4417 10.5415 -27.4398 -27.9345 63.9529 -0.762638 -23.9904 -3.58611 -8.56785e-010 9.98472e-010 -5.22582e-009 -1.378e-009 1.73155e-009 -9.04345e-009 -8.56784e-010 9.98473e-010 -5.22582e-009 7.73091 5.47488 0.417314 -8.5679e-010 9.9847e-010 -5.2258e-009 2.90554 0.965183 0.102902 -8.56783e-010 9.98476e-010 -5.22581e-009 10.2786 0.731801 0.0259123 -8.56791e-010 9.98477e-010 -5.2258e-009 2.22167 -0.733487 -0.20892 1.68478e-013 1.13936e-012 4.19591e-014 -63.908 22.1218 -17.028 27.724 -29.1642 -65.9207 0.558907 -20.7528 3.0526 -1.53419e-010 4.36806e-009 5.52365e-009 -3.49729e-010 7.55691e-009 9.53668e-009 -1.53424e-010 4.36806e-009 5.52366e-009 -7.73091 5.47488 -0.417314 -1.53414e-010 4.36806e-009 5.52364e-009 -2.90554 0.965183 -0.102902 -1.53424e-010 4.36806e-009 5.52365e-009 -10.2786 0.731801 -0.0259123 -1.53417e-010 4.36806e-009 5.52364e-009 -2.22167 -0.733487 0.20892 -2.03217e-016 0 -3.88251e-019 5.06725 -32.6096 12.3609 -0.261568 37.8886 0.909027 -10.8447 -15.1545 -28.5738 2.03217e-016 0 3.88251e-019 -11.8555 5.71481 -2.2525 -0.0246414 18.0196 -0.686868 8.44555 -17.7729 21.2081 
26.8504 84.8378 -5.65434 1.2167 6.93795 100.608 -13.6452 13.9631 2.67599 1.73956 1.15152 0.498805 6.28214 4.73949 2.49773 -3.49704 -7.67137 3.78452 -0 0 0 -0 0 0 1.20593e-013 8.26699e-013 2.6172e-014 68.0333 20.0959 10.1664 -27.5094 -28.2165 64.3998 -0.754729 -23.8794 -3.56726 -5.69807e-010 5.79079e-010 -3.33967e-009 -9.20161e-010 1.00419e-009 -5.77966e-009 -5.69805e-010 5.7908e-010 -3.33967e-009 7.73091 5.47488 0.417314 -5.69814e-010 5.79076e-010 -3.33964e-009 2.90554 0.965183 0.102902 -5.698e-010 5.79085e-010 -3.33967e-009 10.2786 0.731801 0.0259123 -5.6981e-010 5.79083e-010 -3.33966e-009 2.22167 -0.733487 -0.20892 1.20536e-013 8.26726e-013 2.58509e-014 -63.854 22.2304 -17.6403 27.7251 -29.17 -65.9304 0.539584 -20.4086 2.99736 -1.98245e-010 2.56329e-009 3.38243e-009 -3.9369e-010 4.43315e-009 5.83846e-009 -1.9825e-010 2.56329e-009 3.38244e-009 -7.73091 5.47488 -0.417314 -1.9824e-010 2.56329e-009 3.38243e-009 -2.90554 0.965183 -0.102902 -1.98248e-010 2.56329e-009 3.38243e-009 -10.2786 0.731801 -0.0259123 -1.98243e-010 2.56329e-009 3.38242e-009 -2.22167 -0.733487 0.20892 -2.03217e-016 0 -3.88251e-019 5.39963 -32.3536 14.4864 -0.198281 34.0885 0.844706 -11.8519 -16.6825 -29.3977 2.03217e-016 0 3.88251e-019 -12.2195 8.04595 -1.77176 -0.0283592 15.4929 -0.641991 8.09209 -16.8831 21.2106 
